<svg id="Capa_1" data-name="Capa 1" xmlns="http://www.w3.org/2000/svg" viewBox="0 0 704.82 204.29"><path d="M309.26,136H263.65l-10.27,29.42H234.23L276.88,43.51H296l42.65,121.86H319.53Zm-5.92-17.24L286.46,70.32l-16.89,48.39Z" transform="translate(-60.78 -40.46)" style="fill:#e74038"/><path d="M577.51,142.43V113c0-21.19-16.84-38.43-37.55-38.43S502.4,91.8,502.4,113V123.5h0v43.95a24.57,24.57,0,0,0,21.32-24.54V113a16.23,16.23,0,1,1,32.46,0v29.44A24.55,24.55,0,0,0,577.51,167Z" transform="translate(-60.78 -40.46)" style="fill:#e74038"/><path d="M369.34,139.92c0,6.54,1.22,8.43,8.37,8.43h13.78v17.38h-19c-15,0-21.44-7.23-21.44-21.17V94H338.31v-17H351V56.81h18.3V76.94h22.15v5.11A12,12,0,0,1,379.4,94H369.34Z" transform="translate(-60.78 -40.46)" style="fill:#e74038"/><path d="M462.79,137.51h18.65c-3.14,23.57-22.49,29.94-37,29.94-15.69,0-37.48-7.57-37.48-36.82V111.35c0-29.25,21.79-36.82,37.48-36.82S482,82.1,482,111.35v16H425.3v2.92c0,13.42,7.85,19.79,19.18,19.79C453.55,150.07,460.35,145.94,462.79,137.51ZM425.3,111.18v.17h38.36v-.17c-.18-12.9-8-19.27-19.18-19.27C433.15,91.91,425.3,98.28,425.3,111.18Z" transform="translate(-60.78 -40.46)" style="fill:#e74038"/><path d="M653.86,137.51h18.65c-3.14,23.57-22.49,29.94-37,29.94-15.69,0-37.48-7.57-37.48-36.82V111.35c0-29.25,21.79-36.82,37.48-36.82S673,82.1,673,111.35v16H616.37v2.92c0,13.42,7.85,19.79,19.18,19.79C644.62,150.07,651.41,145.94,653.86,137.51Zm-37.49-26.33v.17h38.36v-.17c-.18-12.9-8-19.27-19.18-19.27C624.22,91.91,616.37,98.28,616.37,111.18Z" transform="translate(-60.78 -40.46)" style="fill:#e74038"/><path d="M709.81,104.47H691.16c3.14-23.57,22.49-29.94,37-29.94,15.69,0,37.48,7.57,37.48,36.82v54.38H747.3V157.3c-5.76,6.88-15,10.15-26.85,10.15-16.39,0-30.69-8.09-30.69-26.33,0-10.15,4.54-22,19.53-26.67,10.81-3.27,22.66-4.13,37.83-5.16v-.17c-.87-11.53-8.37-17.21-19-17.21C719.05,91.91,712.25,96,709.81,104.47Zm37.49,25.81v-5c-16,1-28.25,2.07-34.87,6-2.27,1.38-4.36,3.79-4.36,8.26,0,7.23,5.58,10.5,15.34,10.5C733.87,150.07,747.3,146.8,747.3,130.28Z" transform="translate(-60.78 -40.46)" style="fill:#e74038"/><path d="M429.07,226.69v-9.87a13.39,13.39,0,0,0-26.77,0v9.87a1,1,0,1,1-2,0v-9.87a13.39,13.39,0,0,0-26.77,0V234.2h7.6V216.82a5.79,5.79,0,0,1,11.57,0v9.87a8.62,8.62,0,1,0,17.23,0v-9.87a5.79,5.79,0,0,1,11.57,0v9.87a8.62,8.62,0,0,0,7.6,8.55Z" transform="translate(-60.78 -40.46)" style="fill:#e74038"/><path d="M477.08,203.44a13.39,13.39,0,0,0-13.39,13.38v9.87a1,1,0,1,1-2,0v-9.87a13.39,13.39,0,0,0-26.78,0v3.67h0v14.75a8.62,8.62,0,0,0,7.6-8.55v-9.87a5.79,5.79,0,0,1,11.57,0v9.87a8.62,8.62,0,1,0,17.23,0v-9.87a5.79,5.79,0,0,1,11.57,0V234.2h7.6V216.82A13.39,13.39,0,0,0,477.08,203.44Z" transform="translate(-60.78 -40.46)" style="fill:#e74038"/><path d="M551.44,207.53a11.46,11.46,0,0,0-4.15-2.75,16.85,16.85,0,0,0-11.27,0,11.47,11.47,0,0,0-4.13,2.75,11.67,11.67,0,0,0-2.56,4.28,17.13,17.13,0,0,0-.86,5.59v3.78a17.23,17.23,0,0,0,.86,5.6,11.71,11.71,0,0,0,2.56,4.27A11.34,11.34,0,0,0,536,233.8a15.09,15.09,0,0,0,5.65,1,13.15,13.15,0,0,0,8.71-2.73,12.33,12.33,0,0,0,4.19-7.37h-7.69a4.88,4.88,0,0,1-1.89,2.38,5.77,5.77,0,0,1-3.32.89,5.34,5.34,0,0,1-4.19-1.58,6,6,0,0,1-1.44-4.21V222h18.82V217.4a17.13,17.13,0,0,0-.86-5.59A11.67,11.67,0,0,0,551.44,207.53Zm-4.21,8.21H536v-.06a5.77,5.77,0,0,1,1.64-3.67,5.45,5.45,0,0,1,4-1.38,5,5,0,0,1,5.56,5.05Z" transform="translate(-60.78 -40.46)" style="fill:#e74038"/><path d="M575.22,204.09a8.37,8.37,0,0,0-4.45,1.12,5.91,5.91,0,0,0-2.44,2.61v-3.21h-7.57V234.2h7.57v-17a6.32,6.32,0,0,1,.49-2.58,5.28,5.28,0,0,1,1.26-1.78,5.19,5.19,0,0,1,1.78-1,6.41,6.41,0,0,1,2.09-.35h3.56v-7.4Z" transform="translate(-60.78 -40.46)" style="fill:#e74038"/><path d="M519,207a10.7,10.7,0,0,0-3.81-2.38,12.77,12.77,0,0,0-4.39-.77,8.38,8.38,0,0,0-2,.25,12.5,12.5,0,0,0-2,.69,8.43,8.43,0,0,0-1.69,1.06,7,7,0,0,0-1.29,1.38v-2.58h-7.57v40.15h7.57V231.39a7,7,0,0,0,1.29,1.38,8.43,8.43,0,0,0,1.69,1.06,10.74,10.74,0,0,0,2,.69,8.4,8.4,0,0,0,2,.26,12.78,12.78,0,0,0,4.39-.78,10.56,10.56,0,0,0,3.81-2.38,11.83,11.83,0,0,0,2.67-4,14.71,14.71,0,0,0,1-5.68v-5.28a14.71,14.71,0,0,0-1-5.68A11.83,11.83,0,0,0,519,207Zm-3.9,14.68a6.32,6.32,0,0,1-.48,2.58,5,5,0,0,1-3,2.81,6.45,6.45,0,0,1-4.19,0,5.19,5.19,0,0,1-1.78-1,5,5,0,0,1-1.26-1.78,6.16,6.16,0,0,1-.49-2.58v-4.7a6.22,6.22,0,0,1,.49-2.58,5,5,0,0,1,1.26-1.78,5.19,5.19,0,0,1,1.78-1,6.45,6.45,0,0,1,4.19,0,5,5,0,0,1,3,2.81,6.39,6.39,0,0,1,.48,2.58Z" transform="translate(-60.78 -40.46)" style="fill:#e74038"/><path d="M351.24,193.59h0c-2.95,0-4.66,2.29-6.16,6.78L333.41,234.2h7.78l2.65-7.93h14.89c.87,2.61,1.77,5.28,2.65,7.93h7.72c-5.13-14.82-10.84-31.28-11.79-34C355.77,195.69,354.21,193.59,351.24,193.59Zm-5,25.43,5-15c.89,2.64,2.78,8.26,5,15Z" transform="translate(-60.78 -40.46)" style="fill:#e74038"/><path d="M263.82,220.67c0,9-6.54,12.06-11.56,12.06-3,0-5.92-1.63-6.76-3.33v13.14h-5.92V203.08h5.92v2.54c.84-1.69,3.72-3.33,6.76-3.33,5,0,11.56,3.1,11.56,12.06Zm-5.92-6.2c0-4.4-2.54-6.43-6.2-6.43s-6.2,2-6.2,6.43v6.08c0,4.4,2.53,6.43,6.2,6.43s6.2-2,6.2-6.43Z" transform="translate(-60.78 -40.46)" style="fill:#1d1d1b"/><path d="M270,214.35c0-9.58,7-12.06,12.12-12.06s12.11,2.48,12.11,12.06v6.32c0,9.58-7,12.06-12.11,12.06S270,230.25,270,220.67Zm18.32.12c0-4.4-2.54-6.48-6.2-6.48s-6.2,2.08-6.2,6.48v6.08c0,4.4,2.53,6.49,6.2,6.49s6.2-2.09,6.2-6.49Z" transform="translate(-60.78 -40.46)" style="fill:#1d1d1b"/><path d="M313.36,208.32c-3.66,0-6.2,2-6.2,6.43v17.42h-5.91V203.08h5.91v2.82c.85-1.69,3.72-3.33,6.77-3.33h2.25v5.75Z" transform="translate(-60.78 -40.46)" style="fill:#1d1d1b"/><path d="M138,90a5.24,5.24,0,1,0,5.24,5.23A5.23,5.23,0,0,0,138,90Z" transform="translate(-60.78 -40.46)" style="fill:#1d1d1b"/><path d="M193.38,100.46a5.24,5.24,0,1,0-5.23-5.24A5.23,5.23,0,0,0,193.38,100.46Z" transform="translate(-60.78 -40.46)" style="fill:#1d1d1b"/><path d="M226.51,62.06v-5.4H210.43a47.11,47.11,0,0,0-5.85.38,55.41,55.41,0,0,0-79,0,47.29,47.29,0,0,0-5.48-.33H104v5.4h16.08c.51,0,1,0,1.53,0a49.54,49.54,0,0,0-10.48,25.23H60.78V90a90.6,90.6,0,0,0,89.88,90.49c16.16,8.2,38,12.09,67.13,12.09h2.7v-2.7c0-28.38,0-89.18,0-89.18v-1s0-.09,0-.13h0V95.07a54.79,54.79,0,0,0-11-33c.3,0,.6,0,.91,0ZM162.11,46V59.08a3.57,3.57,0,1,0,2.7,0V45.87h.24a52.17,52.17,0,0,1,6,.37v10h2.7V46.63A49.27,49.27,0,0,1,198.08,58.3a47.71,47.71,0,0,0-32.82,31.15,47.71,47.71,0,0,0-33.14-31.24A49.46,49.46,0,0,1,162.11,46Zm3.5,93.72,2.7.05s0-.06,0-.1h0a17.34,17.34,0,0,1,4.45-12.1,15.8,15.8,0,0,1,11.45-5.13h6.16v34.52l-7.9,7.9v19.88c-18.06-3-31.67-8.56-41.7-17.08-13.28-11.29-20.94-28-23.59-51.85a22.31,22.31,0,0,0,15.47,6.63H147a15.82,15.82,0,0,1,11.5,5.13,17.34,17.34,0,0,1,4.45,12.1h0s0,.07,0,.1Zm-54.85-40h-.07a24.88,24.88,0,0,0,.12,2.6c.48,15.11,2.54,28,6.26,38.85h-14V119.17l-8.35-8.35V92.73h16c0,.77,0,1.55,0,2.34C110.69,96.63,110.73,98.13,110.76,99.65ZM81.34,138.44v-25a3.58,3.58,0,1,0-2.7,0v20.89A84.57,84.57,0,0,1,66.22,92.73H92v19.21l8.35,8.35v37.89A85.82,85.82,0,0,1,81.34,138.44Zm21.75,21.67V143.8h15c4.37,11.5,10.71,20.71,19.2,27.92,1.12.95,2.29,1.86,3.48,2.74A84.44,84.44,0,0,1,103.09,160.11Zm82.08,25v-8.77h29.92V187.2A221.9,221.9,0,0,1,185.17,185.13Zm29.92-11.47H185.17v-7.73l7.9-7.9V122.39h5.56a23.53,23.53,0,0,0,3-.29v29.66a3.57,3.57,0,1,0,2.7,0V121.51a22.15,22.15,0,0,0,9.92-6c.29-.3.55-.63.83-1C215.11,129.63,215.1,154.09,215.09,173.66Zm0-78.59v4.81A16.9,16.9,0,0,1,198.58,117H184.16a21.21,21.21,0,0,0-15.38,6.88,22.43,22.43,0,0,0-3.17,4.52,22,22,0,0,0-3.17-4.52A21.2,21.2,0,0,0,147,117H132.7a16.94,16.94,0,0,1-16.5-15.15c-.07-2.21-.11-4.46-.11-6.77,0-12.95,3.6-22.68,11.94-32.24a42.18,42.18,0,0,1,34.18,41.36h6.1a42.19,42.19,0,0,1,34.77-41.47A49.37,49.37,0,0,1,215.12,95.07Z" transform="translate(-60.78 -40.46)" style="fill:#1d1d1b"/><polygon points="89.43 170.77 78.42 178.73 78.42 190.01 83.82 190.01 83.82 181.49 94.83 173.53 94.83 146.18 89.43 146.18 89.43 170.77" style="fill:#1d1d1b"/><rect x="89.43" y="180.74" width="5.4" height="8.32" style="fill:#1d1d1b"/><rect x="99.5" y="152.31" width="5.4" height="37.7" style="fill:#1d1d1b"/><polygon points="120.32 170.77 109.31 178.73 109.31 190.01 114.71 190.01 114.71 181.49 125.72 173.53 125.72 156.1 120.32 156.1 120.32 170.77" style="fill:#1d1d1b"/><rect x="120.32" y="180.74" width="5.4" height="9.27" style="fill:#1d1d1b"/><rect x="131.73" y="156.1" width="5.4" height="33.9" style="fill:#1d1d1b"/></svg>